<?xml version="1.0" encoding="UTF-8"?>
<!DOCTYPE svg PUBLIC "-//W3C//DTD SVG 1.1//EN" "http://www.w3.org/Graphics/SVG/1.1/DTD/svg11.dtd">
<svg xmlns="http://www.w3.org/2000/svg" version="1.1" width="512px" height="512px" style="shape-rendering:geometricPrecision; text-rendering:geometricPrecision; image-rendering:optimizeQuality; fill-rule:evenodd; clip-rule:evenodd" xmlns:xlink="http://www.w3.org/1999/xlink">
<g><path style="opacity:0.979" fill="#000000" d="M 243.5,-0.5 C 244.5,-0.5 245.5,-0.5 246.5,-0.5C 246.5,33.8333 246.5,68.1667 246.5,102.5C 216.503,101.815 186.837,98.3152 157.5,92C 154.992,91.885 152.992,90.885 151.5,89C 162.731,63.5331 178.397,41.1998 198.5,22C 211.676,10.7452 226.676,3.24523 243.5,-0.5 Z"/></g>
<g><path style="opacity:0.979" fill="#000000" d="M 263.5,-0.5 C 264.833,-0.5 266.167,-0.5 267.5,-0.5C 284.324,3.24523 299.324,10.7452 312.5,22C 332.603,41.1998 348.269,63.5331 359.5,89C 358.008,90.885 356.008,91.885 353.5,92C 323.837,98.3885 293.837,101.888 263.5,102.5C 263.5,68.1667 263.5,33.8333 263.5,-0.5 Z"/></g>
<g><path style="opacity:0.941" fill="#000000" d="M 187.5,7.5 C 188.552,7.35055 189.552,7.51722 190.5,8C 166.556,30.3824 147.889,56.549 134.5,86.5C 117.14,80.9805 100.14,74.6472 83.5,67.5C 83.2965,65.6096 83.9632,64.1096 85.5,63C 115.603,37.4466 149.603,18.9466 187.5,7.5 Z"/></g>
<g><path style="opacity:0.941" fill="#000000" d="M 320.5,8.5 C 320.735,7.90326 321.235,7.56993 322,7.5C 360.794,18.3635 395.294,36.8635 425.5,63C 427.037,64.1096 427.703,65.6096 427.5,67.5C 410.86,74.6472 393.86,80.9805 376.5,86.5C 366.338,65.4927 354.172,45.826 340,27.5C 333.631,20.964 327.131,14.6306 320.5,8.5 Z"/></g>
<g><path style="opacity:0.977" fill="#000000" d="M 69.5,78.5 C 80.2499,82.7055 90.9165,87.2055 101.5,92C 110.294,95.5426 119.294,98.3759 128.5,100.5C 120.192,125.566 113.525,151.066 108.5,177C 76.1684,177.5 43.8351,177.667 11.5,177.5C 23.4079,139.999 42.7412,106.999 69.5,78.5 Z"/></g>
<g><path style="opacity:0.977" fill="#000000" d="M 438.5,78.5 C 442.302,79.7786 445.469,82.1119 448,85.5C 471.63,112.415 488.797,143.082 499.5,177.5C 467.165,177.667 434.832,177.5 402.5,177C 397.475,151.066 390.808,125.566 382.5,100.5C 402.108,95.355 420.775,88.0216 438.5,78.5 Z"/></g>
<g><path style="opacity:0.984" fill="#000000" d="M 144.5,105.5 C 178.025,113.441 212.025,117.774 246.5,118.5C 246.5,138.167 246.5,157.833 246.5,177.5C 206.167,177.5 165.833,177.5 125.5,177.5C 129.023,152.74 135.357,128.74 144.5,105.5 Z"/></g>
<g><path style="opacity:0.983" fill="#000000" d="M 363.5,105.5 C 364.822,105.33 365.989,105.663 367,106.5C 375.829,129.483 381.996,153.15 385.5,177.5C 344.833,177.5 304.167,177.5 263.5,177.5C 263.5,157.833 263.5,138.167 263.5,118.5C 297.482,118.072 330.816,113.739 363.5,105.5 Z"/></g>
<g><path style="opacity:0.96" fill="#000000" d="M 511.5,232.5 C 511.5,247.833 511.5,263.167 511.5,278.5C 509.832,291.159 507.499,303.826 504.5,316.5C 338.5,317.833 172.5,317.833 6.5,316.5C 3.36744,303.847 1.03411,291.181 -0.5,278.5C -0.5,263.167 -0.5,247.833 -0.5,232.5C 1.03411,219.819 3.36744,207.153 6.5,194.5C 172.5,193.167 338.5,193.167 504.5,194.5C 507.499,207.174 509.832,219.841 511.5,232.5 Z M 51.5,213.5 C 54.6401,214.129 57.1401,215.796 59,218.5C 64.47,233.91 70.1367,249.244 76,264.5C 81.9751,248.238 88.1418,232.072 94.5,216C 98.3942,212.836 102.228,213.002 106,216.5C 112,232.5 118,248.5 124,264.5C 129.853,249.277 135.52,233.944 141,218.5C 147.629,211.916 152.795,213.083 156.5,222C 148.047,246.566 139.047,270.9 129.5,295C 124.718,298.202 120.552,297.368 117,292.5C 111.53,277.09 105.863,261.756 100,246.5C 94,262.5 88,278.5 82,294.5C 80.0876,295.692 78.0876,296.692 76,297.5C 73.9124,296.692 71.9124,295.692 70,294.5C 61.0683,270.538 52.235,246.538 43.5,222.5C 44.1417,217.533 46.8084,214.533 51.5,213.5 Z M 362.5,213.5 C 365.64,214.129 368.14,215.796 370,218.5C 375.48,233.944 381.147,249.277 387,264.5C 392.975,248.238 399.142,232.072 405.5,216C 410.282,212.798 414.448,213.632 418,218.5C 423.47,233.91 429.137,249.244 435,264.5C 440.863,249.244 446.53,233.91 452,218.5C 455.834,213.31 460.167,212.643 465,216.5C 465.931,218.459 466.764,220.459 467.5,222.5C 458.79,246.799 449.79,270.966 440.5,295C 436.606,298.164 432.772,297.998 429,294.5C 423,278.5 417,262.5 411,246.5C 405.137,261.756 399.47,277.09 394,292.5C 390.166,297.69 385.833,298.357 381,294.5C 371.749,270.496 362.916,246.329 354.5,222C 355.362,217.309 358.028,214.475 362.5,213.5 Z M 203.5,214.5 C 207.516,213.9 211.016,214.9 214,217.5C 219.541,233.292 225.375,248.959 231.5,264.5C 237.096,249.548 242.596,234.548 248,219.5C 250.435,214.776 254.269,213.276 259.5,215C 260.333,215.833 261.167,216.667 262,217.5C 267.934,233.138 273.768,248.804 279.5,264.5C 285.625,248.959 291.459,233.292 297,217.5C 306.528,211.697 311.195,214.364 311,225.5C 302.863,248.244 294.53,270.91 286,293.5C 281.667,297.5 277.333,297.5 273,293.5C 267.161,277.825 261.328,262.158 255.5,246.5C 249.672,262.158 243.839,277.825 238,293.5C 235.091,296.394 231.591,297.227 227.5,296C 224.769,293.374 222.936,290.207 222,286.5C 214.864,266.09 207.53,245.757 200,225.5C 198.882,221.077 200.049,217.41 203.5,214.5 Z"/></g>
<g><path style="opacity:0.977" fill="#000000" d="M 11.5,333.5 C 43.8351,333.333 76.1684,333.5 108.5,334C 113.525,359.934 120.192,385.434 128.5,410.5C 109.1,415.698 90.4332,422.864 72.5,432C 71.5,432.667 70.5,432.667 69.5,432C 42.6081,403.731 23.2748,370.897 11.5,333.5 Z"/></g>
<g><path style="opacity:0.984" fill="#000000" d="M 125.5,333.5 C 165.833,333.5 206.167,333.5 246.5,333.5C 246.5,353.167 246.5,372.833 246.5,392.5C 212.51,393.103 179.01,397.436 146,405.5C 144.523,404.556 143.523,403.223 143,401.5C 134.659,379.47 128.826,356.803 125.5,333.5 Z"/></g>
<g><path style="opacity:0.984" fill="#000000" d="M 263.5,333.5 C 304.167,333.5 344.833,333.5 385.5,333.5C 382.054,358.117 375.721,381.95 366.5,405C 332.646,397.477 298.313,393.31 263.5,392.5C 263.5,372.833 263.5,353.167 263.5,333.5 Z"/></g>
<g><path style="opacity:0.977" fill="#000000" d="M 402.5,333.5 C 434.833,333.5 467.167,333.5 499.5,333.5C 487.725,370.897 468.392,403.731 441.5,432C 440.5,432.667 439.5,432.667 438.5,432C 420.567,422.864 401.9,415.698 382.5,410.5C 390.888,385.281 397.555,359.614 402.5,333.5 Z"/></g>
<g><path style="opacity:0.979" fill="#000000" d="M 246.5,511.5 C 245.5,511.5 244.5,511.5 243.5,511.5C 226.676,507.755 211.676,500.255 198.5,489C 178.397,469.8 162.731,447.467 151.5,422C 151.905,421.055 152.572,420.388 153.5,420C 184.104,412.988 215.104,409.155 246.5,408.5C 246.5,442.833 246.5,477.167 246.5,511.5 Z"/></g>
<g><path style="opacity:0.978" fill="#000000" d="M 267.5,511.5 C 266.167,511.5 264.833,511.5 263.5,511.5C 263.5,477.167 263.5,442.833 263.5,408.5C 295.236,409.082 326.57,412.915 357.5,420C 358.428,420.388 359.095,421.055 359.5,422C 348.269,447.467 332.603,469.8 312.5,489C 299.324,500.255 284.324,507.755 267.5,511.5 Z"/></g>
<g><path style="opacity:0.94" fill="#000000" d="M 133.5,424.5 C 134.376,424.369 135.043,424.702 135.5,425.5C 148.306,455.287 166.639,481.12 190.5,503C 151.177,492.839 116.177,474.506 85.5,448C 83.9632,446.89 83.2965,445.39 83.5,443.5C 100.003,436.576 116.669,430.242 133.5,424.5 Z"/></g>
<g><path style="opacity:0.941" fill="#000000" d="M 375.5,424.5 C 393.278,429.727 410.611,436.06 427.5,443.5C 427.703,445.39 427.037,446.89 425.5,448C 394.823,474.506 359.823,492.839 320.5,503C 344.638,480.887 362.972,454.72 375.5,424.5 Z"/></g>
</svg>
