<?xml version="1.0" encoding="UTF-8"?>
<!DOCTYPE svg PUBLIC "-//W3C//DTD SVG 1.1//EN" "http://www.w3.org/Graphics/SVG/1.1/DTD/svg11.dtd">
<svg xmlns="http://www.w3.org/2000/svg" version="1.1" width="512px" height="512px" style="shape-rendering:geometricPrecision; text-rendering:geometricPrecision; image-rendering:optimizeQuality; fill-rule:evenodd; clip-rule:evenodd" xmlns:xlink="http://www.w3.org/1999/xlink">
<g><path style="opacity:1" fill="#00b6ff" d="M 111.5,-0.5 C 205.833,-0.5 300.167,-0.5 394.5,-0.5C 438.546,11.3837 458.379,40.0504 454,85.5C 447.298,113.7 430.131,132.034 402.5,140.5C 402.648,137.648 401.314,135.981 398.5,135.5C 387.705,139.765 376.705,143.432 365.5,146.5C 342.941,125.3 317.274,120.467 288.5,132C 281.948,135.437 275.948,139.604 270.5,144.5C 236.033,141.218 202.033,144.384 168.5,154C 160.085,156.384 152.085,159.55 144.5,163.5C 137.335,158.389 130.668,152.556 124.5,146C 118.406,143.295 114.239,145.128 112,151.5C 111.08,154.101 110.413,156.768 110,159.5C 109.5,167.159 109.334,174.826 109.5,182.5C 55.0096,218.069 20.1763,267.736 5,331.5C 2.929,341.935 1.09567,352.268 -0.5,362.5C -0.5,278.833 -0.5,195.167 -0.5,111.5C 8.7041,57.4517 39.3708,21.6184 91.5,4C 98.2585,2.28494 104.925,0.784944 111.5,-0.5 Z"/></g>
<g><path style="opacity:0.997" fill="#109dff" d="M 394.5,-0.5 C 396.167,-0.5 397.833,-0.5 399.5,-0.5C 453.548,8.7041 489.382,39.3708 507,91.5C 508.715,98.2585 510.215,104.925 511.5,111.5C 511.5,119.5 511.5,127.5 511.5,135.5C 507.169,180.009 486.169,214.176 448.5,238C 425.175,250.899 400.175,256.733 373.5,255.5C 379.972,234.362 383.139,212.696 383,190.5C 390.233,185.202 396.899,179.202 403,172.5C 404.959,170.223 406.459,167.723 407.5,165C 407.445,162.11 405.945,160.944 403,161.5C 396.799,162.759 390.632,164.093 384.5,165.5C 384.343,164.127 384.51,162.793 385,161.5C 392.115,155.553 397.949,148.553 402.5,140.5C 430.131,132.034 447.298,113.7 454,85.5C 458.379,40.0504 438.546,11.3837 394.5,-0.5 Z"/></g>
<g><path style="opacity:1" fill="#fefeff" d="M 402.5,140.5 C 397.949,148.553 392.115,155.553 385,161.5C 384.51,162.793 384.343,164.127 384.5,165.5C 390.632,164.093 396.799,162.759 403,161.5C 405.945,160.944 407.445,162.11 407.5,165C 406.459,167.723 404.959,170.223 403,172.5C 396.899,179.202 390.233,185.202 383,190.5C 383.139,212.696 379.972,234.362 373.5,255.5C 357.277,306.435 325.277,343.935 277.5,368C 270.252,371.127 262.919,373.96 255.5,376.5C 211.992,389.63 168.992,388.13 126.5,372C 118.57,368.35 117.57,363.35 123.5,357C 142.918,354.416 161.252,348.416 178.5,339C 182.567,336.639 186.233,333.806 189.5,330.5C 167.166,326.673 149.666,315.339 137,296.5C 135.773,292.409 136.606,288.909 139.5,286C 145.725,284.749 152.058,284.083 158.5,284C 159.672,283.581 160.672,282.915 161.5,282C 131.19,275.69 114.023,257.19 110,226.5C 111.618,223.855 113.952,222.189 117,221.5C 121.108,222.735 125.275,223.735 129.5,224.5C 131.319,224.658 132.652,223.991 133.5,222.5C 127.772,216.942 122.606,210.942 118,204.5C 114.268,197.464 111.435,190.131 109.5,182.5C 109.334,174.826 109.5,167.159 110,159.5C 110.413,156.768 111.08,154.101 112,151.5C 114.239,145.128 118.406,143.295 124.5,146C 130.668,152.556 137.335,158.389 144.5,163.5C 175.499,189.842 211.499,203.842 252.5,205.5C 248.422,182.078 254.422,161.745 270.5,144.5C 275.948,139.604 281.948,135.437 288.5,132C 317.274,120.467 342.941,125.3 365.5,146.5C 376.705,143.432 387.705,139.765 398.5,135.5C 401.314,135.981 402.648,137.648 402.5,140.5 Z"/></g>
<g><path style="opacity:1" fill="#139dff" d="M 270.5,144.5 C 254.422,161.745 248.422,182.078 252.5,205.5C 211.499,203.842 175.499,189.842 144.5,163.5C 152.085,159.55 160.085,156.384 168.5,154C 202.033,144.384 236.033,141.218 270.5,144.5 Z"/></g>
<g><path style="opacity:1" fill="#1d83ff" d="M 511.5,135.5 C 511.5,223.5 511.5,311.5 511.5,399.5C 502.296,453.548 471.629,489.382 419.5,507C 412.741,508.715 406.075,510.215 399.5,511.5C 389.833,511.5 380.167,511.5 370.5,511.5C 316.003,502.98 279.503,472.646 261,420.5C 256.869,406.122 255.036,391.455 255.5,376.5C 262.919,373.96 270.252,371.127 277.5,368C 325.277,343.935 357.277,306.435 373.5,255.5C 400.175,256.733 425.175,250.899 448.5,238C 486.169,214.176 507.169,180.009 511.5,135.5 Z"/></g>
<g><path style="opacity:0.999" fill="#0f9dff" d="M 109.5,182.5 C 111.435,190.131 114.268,197.464 118,204.5C 122.606,210.942 127.772,216.942 133.5,222.5C 132.652,223.991 131.319,224.658 129.5,224.5C 125.275,223.735 121.108,222.735 117,221.5C 113.952,222.189 111.618,223.855 110,226.5C 114.023,257.19 131.19,275.69 161.5,282C 160.672,282.915 159.672,283.581 158.5,284C 152.058,284.083 145.725,284.749 139.5,286C 136.606,288.909 135.773,292.409 137,296.5C 149.666,315.339 167.166,326.673 189.5,330.5C 186.233,333.806 182.567,336.639 178.5,339C 161.252,348.416 142.918,354.416 123.5,357C 117.57,363.35 118.57,368.35 126.5,372C 168.992,388.13 211.992,389.63 255.5,376.5C 255.036,391.455 256.869,406.122 261,420.5C 279.503,472.646 316.003,502.98 370.5,511.5C 284.167,511.5 197.833,511.5 111.5,511.5C 57.4517,502.296 21.6184,471.629 4,419.5C 2.28494,412.741 0.784944,406.075 -0.5,399.5C -0.5,387.167 -0.5,374.833 -0.5,362.5C 1.09567,352.268 2.929,341.935 5,331.5C 20.1763,267.736 55.0096,218.069 109.5,182.5 Z"/></g>
</svg>
