<?xml version="1.0" encoding="UTF-8"?>
<!DOCTYPE svg PUBLIC "-//W3C//DTD SVG 1.1//EN" "http://www.w3.org/Graphics/SVG/1.1/DTD/svg11.dtd">
<svg xmlns="http://www.w3.org/2000/svg" version="1.1" width="512px" height="512px" style="shape-rendering:geometricPrecision; text-rendering:geometricPrecision; image-rendering:optimizeQuality; fill-rule:evenodd; clip-rule:evenodd" xmlns:xlink="http://www.w3.org/1999/xlink">
<g><path style="opacity:0.996" fill="#e60000" d="M 200.5,-0.5 C 237.167,-0.5 273.833,-0.5 310.5,-0.5C 349.792,1.28415 389.126,4.45082 428.5,9C 465.629,18.1298 489.796,40.9631 501,77.5C 503.724,95.0772 505.724,112.744 507,130.5C 508.645,153.982 510.145,177.316 511.5,200.5C 511.5,237.167 511.5,273.833 511.5,310.5C 509.716,349.792 506.549,389.125 502,428.5C 492.193,467.64 467.693,492.14 428.5,502C 389.126,506.549 349.793,509.716 310.5,511.5C 273.833,511.5 237.167,511.5 200.5,511.5C 161.21,509.695 121.876,506.528 82.5,502C 45.3621,492.861 21.1954,470.028 10,433.5C 4.74063,392.839 1.24063,352.173 -0.5,311.5C -0.5,274.167 -0.5,236.833 -0.5,199.5C 0.894083,176.651 2.39408,153.651 4,130.5C 5.27552,112.744 7.27552,95.0772 10,77.5C 21.2507,40.914 45.4174,18.0806 82.5,9C 121.874,4.45082 161.208,1.28415 200.5,-0.5 Z"/></g>
<g><path style="opacity:1" fill="#fffefe" d="M 232.5,138.5 C 275.581,138.439 318.581,140.272 361.5,144C 377.734,146.698 391.234,154.198 402,166.5C 404.527,170.221 406.527,174.221 408,178.5C 417.945,229.823 417.945,281.156 408,332.5C 402.192,346.308 392.359,356.141 378.5,362C 371.744,364.685 364.744,366.351 357.5,367C 291.525,373.733 225.525,374.066 159.5,368C 139.28,367.305 122.447,359.472 109,344.5C 106.473,340.779 104.473,336.779 103,332.5C 93.0543,281.162 93.0543,229.828 103,178.5C 111.077,160.358 124.91,149.191 144.5,145C 173.875,141.363 203.208,139.196 232.5,138.5 Z"/></g>
<g><path style="opacity:1" fill="#e60301" d="M 217.5,194.5 C 250.639,214.572 283.639,234.905 316.5,255.5C 283.75,275.959 250.917,296.292 218,316.5C 217.5,275.835 217.333,235.168 217.5,194.5 Z"/></g>
</svg>
